<svg width="87" height="26" viewBox="0 0 87 26" fill="none" xmlns="http://www.w3.org/2000/svg">
<path d="M11.688 19.976V13.808H14.4L17.112 19.976H21.12L17.856 13.16C19.752 12.296 21 10.544 21 8.336C21 5.12 18.624 2.888 15.264 2.888H7.992V19.976H11.688ZM11.688 6.08H14.688C16.224 6.08 17.184 6.992 17.184 8.36C17.184 9.776 16.176 10.76 14.64 10.76H11.688V6.08ZM28.9528 7.4C25.1128 7.4 22.3528 10.184 22.3528 13.832C22.3528 17.456 25.1128 20.288 28.9528 20.288C32.7928 20.288 35.5528 17.456 35.5528 13.832C35.5528 10.184 32.7928 7.4 28.9528 7.4ZM28.9528 10.64C30.6088 10.64 31.8568 11.912 31.8568 13.832C31.8568 15.752 30.6088 17.048 28.9528 17.048C27.2968 17.048 26.0488 15.752 26.0488 13.832C26.0488 11.912 27.2968 10.64 28.9528 10.64ZM37.7933 16.496C37.7933 19.088 39.3053 20.288 41.6093 20.288C42.3533 20.288 42.8573 20.168 43.3133 19.976V16.976C43.0013 17.096 42.7133 17.12 42.4973 17.12C41.5613 17.12 41.4413 16.496 41.4413 15.824V2.888H37.7933V16.496ZM45.1995 16.496C45.1995 19.088 46.7115 20.288 49.0155 20.288C49.7595 20.288 50.2635 20.168 50.7195 19.976V16.976C50.4075 17.096 50.1195 17.12 49.9035 17.12C48.9675 17.12 48.8475 16.496 48.8475 15.824V2.888H45.1995V16.496ZM52.7498 20H56.3978V7.688H52.7498V20ZM54.5258 2.24C53.3978 2.24 52.5098 3.056 52.5098 4.184C52.5098 5.312 53.3978 6.152 54.5258 6.152C55.6538 6.152 56.5658 5.312 56.5658 4.184C56.5658 3.056 55.6538 2.24 54.5258 2.24ZM59.7107 7.688V20H63.3587V13.592C63.3587 11.984 64.1987 10.616 65.7827 10.616C67.1267 10.616 67.9907 11.456 67.9907 13.064V20H71.6387V12.512C71.6387 9.32 69.8147 7.4 66.8627 7.4C65.2067 7.4 64.0067 8.024 63.2147 9.272V7.688H59.7107ZM73.5816 21.752C73.5816 23.768 76.0056 25.088 79.5816 25.088C83.4936 25.088 86.0136 23.36 86.0136 21.128C86.0136 18.992 84.2856 17.48 81.7656 17.48H78.6936C78.1896 17.48 77.7096 17.312 77.7096 16.856C77.7096 16.568 77.9496 16.328 78.4536 16.136C78.6696 16.16 78.9096 16.16 79.1256 16.16C82.0776 16.16 84.3576 14.264 84.3576 11.768C84.3576 11.288 84.2616 10.832 84.0696 10.4H85.8936V7.688H80.8536C80.3016 7.496 79.7496 7.4 79.1736 7.4C76.2216 7.4 73.9896 9.344 73.9896 11.768C73.9896 13.304 74.8296 14.576 76.1016 15.368C75.1656 15.872 74.5416 16.64 74.5416 17.504C74.5416 18.272 74.8296 18.848 75.5256 19.328C74.3976 19.784 73.5816 20.576 73.5816 21.752ZM79.1736 10.04C80.3016 10.04 81.1416 10.784 81.1416 11.768C81.1416 12.728 80.3016 13.52 79.1736 13.52C78.0456 13.52 77.2056 12.728 77.2056 11.768C77.2056 10.784 78.0456 10.04 79.1736 10.04ZM77.1096 21.2C77.1096 20.72 77.4696 20.408 77.8536 20.216H81.1176C81.8136 20.216 82.4616 20.528 82.4616 21.176C82.4616 21.92 81.5256 22.352 79.6056 22.352C78.0936 22.352 77.1096 21.944 77.1096 21.2Z" fill="white"/>
</svg>
